<svg xmlns="http://www.w3.org/2000/svg" xmlns:xlink="http://www.w3.org/1999/xlink" viewBox="0 0 1800 1000">
  <defs>
    <style>
      .cluster rect { fill: #f0f0f0; stroke: #999; stroke-width: 1.5px; rx: 10; ry: 10; }
      .cluster text { font-weight: bold; font-family: Arial, sans-serif; fill: #333; }
      .node rect { fill: #fff; stroke: #1f77b4; stroke-width: 2px; rx: 5; ry: 5; }
      .node circle { fill: #fff; stroke: #1f77b4; stroke-width: 2px; }
      .node text { font-family: Arial, sans-serif; font-size: 14px; fill: #333; }
      .edgePath path { stroke: #999; stroke-width: 1.5px; fill: none; }
      .dashed-edge path { stroke: #999; stroke-width: 1.5px; stroke-dasharray: 5, 5; fill: none; }
      .title { font-family: Arial, sans-serif; font-size: 24px; font-weight: bold; fill: #333; }
      .database { fill: #e6f3ff; }
    </style>
    
    <!-- 矢印の定義 -->
    <marker id="arrowhead" markerWidth="10" markerHeight="7" refX="9" refY="3.5" orient="auto">
      <polygon points="0 0, 10 3.5, 0 7" fill="#333" />
    </marker>
  </defs>
  
  <!-- タイトル -->
  <text x="900" y="30" text-anchor="middle" class="title">STAR-MCPエコシステム</text>
  
  <!-- ユーザーインターフェース層 -->
  <g transform="translate(900, 100)">
    <rect x="-300" y="-40" width="600" height="160" class="cluster" fill="#e6f7ff" />
    <text x="0" y="-20" text-anchor="middle" class="cluster">ユーザーインターフェース</text>
    
    <g transform="translate(-200, 60)">
      <rect x="-80" y="-30" width="160" height="60" class="node" />
      <text x="0" y="5" text-anchor="middle">3D可視化ダッシュボード</text>
    </g>
    
    <g transform="translate(0, 60)">
      <rect x="-80" y="-30" width="160" height="60" class="node" />
      <text x="0" y="5" text-anchor="middle">対話インターフェース</text>
    </g>
    
    <g transform="translate(200, 60)">
      <rect x="-80" y="-30" width="160" height="60" class="node" />
      <text x="0" y="5" text-anchor="middle">通知システム</text>
    </g>
  </g>
  
  <!-- コアシステム層 -->
  <g transform="translate(900, 300)">
    <rect x="-400" y="-40" width="800" height="160" class="cluster" fill="#fff0f5" />
    <text x="0" y="-20" text-anchor="middle" class="cluster">コアシステム</text>
    
    <g transform="translate(-300, 60)">
      <rect x="-80" y="-30" width="160" height="60" class="node" />
      <text x="0" y="-5" text-anchor="middle">Orchestrator</text>
      <text x="0" y="15" text-anchor="middle" font-size="12">MCPサーバー管理</text>
    </g>
    
    <g transform="translate(-100, 60)">
      <rect x="-80" y="-30" width="160" height="60" class="node" />
      <text x="0" y="-5" text-anchor="middle">AI Engine</text>
      <text x="0" y="15" text-anchor="middle" font-size="12">エージェント実行基盤</text>
    </g>
    
    <g transform="translate(100, 60)">
      <rect x="-80" y="-30" width="160" height="60" class="node" />
      <text x="0" y="-5" text-anchor="middle">DB Connector</text>
      <text x="0" y="15" text-anchor="middle" font-size="12">統合データ管理</text>
    </g>
    
    <g transform="translate(300, 60)">
      <rect x="-80" y="-30" width="160" height="60" class="node" />
      <text x="0" y="-5" text-anchor="middle">Evolution Engine</text>
      <text x="0" y="15" text-anchor="middle" font-size="12">自己進化処理</text>
    </g>
  </g>
  
  <!-- データストア層 -->
  <g transform="translate(900, 500)">
    <rect x="-400" y="-40" width="800" height="160" class="cluster" fill="#f0fff0" />
    <text x="0" y="-20" text-anchor="middle" class="cluster">データストア層</text>
    
    <g transform="translate(-300, 60)">
      <ellipse cx="0" cy="0" rx="70" ry="40" class="node database" />
      <text x="0" y="-5" text-anchor="middle">PostgreSQL</text>
      <text x="0" y="15" text-anchor="middle" font-size="12">構造化データ</text>
    </g>
    
    <g transform="translate(-100, 60)">
      <ellipse cx="0" cy="0" rx="70" ry="40" class="node database" />
      <text x="0" y="-5" text-anchor="middle">Vector DB</text>
      <text x="0" y="15" text-anchor="middle" font-size="12">非構造化データ</text>
    </g>
    
    <g transform="translate(100, 60)">
      <ellipse cx="0" cy="0" rx="70" ry="40" class="node database" />
      <text x="0" y="-5" text-anchor="middle">Neo4j</text>
      <text x="0" y="15" text-anchor="middle" font-size="12">グラフデータ</text>
    </g>
    
    <g transform="translate(300, 60)">
      <ellipse cx="0" cy="0" rx="70" ry="40" class="node database" />
      <text x="0" y="-5" text-anchor="middle">TimescaleDB</text>
      <text x="0" y="15" text-anchor="middle" font-size="12">時系列データ</text>
    </g>
  </g>
  
  <!-- MCPサーバー層 -->
  <g transform="translate(450, 700)">
    <rect x="-350" y="-40" width="700" height="160" class="cluster" fill="#fff8e1" />
    <text x="0" y="-20" text-anchor="middle" class="cluster">MCPサーバー層</text>
    
    <g transform="translate(-250, 60)">
      <rect x="-80" y="-30" width="160" height="60" class="node" />
      <text x="0" y="5" text-anchor="middle">Google Drive MCP</text>
    </g>
    
    <g transform="translate(-80, 60)">
      <rect x="-80" y="-30" width="160" height="60" class="node" />
      <text x="0" y="5" text-anchor="middle">Dropbox MCP</text>
    </g>
    
    <g transform="translate(80, 60)">
      <rect x="-80" y="-30" width="160" height="60" class="node" />
      <text x="0" y="5" text-anchor="middle">Notion MCP</text>
    </g>
    
    <g transform="translate(250, 60)">
      <rect x="-80" y="-30" width="160" height="60" class="node" />
      <text x="0" y="-5" text-anchor="middle">Supabase MCP</text>
      <text x="0" y="15" text-anchor="middle" font-size="12">(会社・家計簿)</text>
    </g>
  </g>
  
  <!-- AIエージェント層 -->
  <g transform="translate(1350, 700)">
    <rect x="-350" y="-40" width="700" height="280" class="cluster" fill="#f9f0ff" />
    <text x="0" y="-20" text-anchor="middle" class="cluster">AIエージェント層</text>
    
    <!-- タスク最適化サブグループ -->
    <g transform="translate(-200, 60)">
      <rect x="-120" y="-40" width="240" height="160" class="cluster" fill="#f0e6ff" />
      <text x="0" y="-20" text-anchor="middle" class="cluster" font-size="14">タスク最適化</text>
      
      <g transform="translate(0, 20)">
        <rect x="-80" y="-30" width="160" height="60" class="node" />
        <text x="0" y="5" text-anchor="middle">Tytan Quantum Annealing</text>
      </g>
      
      <g transform="translate(0, 80)">
        <rect x="-80" y="-30" width="160" height="60" class="node" />
        <text x="0" y="5" text-anchor="middle">スケジュール最適化</text>
      </g>
    </g>
    
    <!-- 技術スカウトサブグループ -->
    <g transform="translate(200, 90)">
      <rect x="-120" y="-70" width="240" height="220" class="cluster" fill="#f0e6ff" />
      <text x="0" y="-50" text-anchor="middle" class="cluster" font-size="14">技術スカウト</text>
      
      <g transform="translate(0, -10)">
        <rect x="-80" y="-30" width="160" height="60" class="node" />
        <text x="0" y="5" text-anchor="middle">トレンド分析</text>
      </g>
      
      <g transform="translate(0, 60)">
        <rect x="-80" y="-30" width="160" height="60" class="node" />
        <text x="0" y="5" text-anchor="middle">PoC管理</text>
      </g>
      
      <g transform="translate(0, 130)">
        <rect x="-80" y="-30" width="160" height="60" class="node" />
        <text x="0" y="5" text-anchor="middle">影響度評価</text>
      </g>
    </g>
    
    <!-- コンテキストマネージャー -->
    <g transform="translate(0, 220)">
      <rect x="-100" y="-30" width="200" height="60" class="node" />
      <text x="0" y="-5" text-anchor="middle">Context Manager</text>
      <text x="0" y="15" text-anchor="middle" font-size="12">コンテキスト管理</text>
    </g>
  </g>
  
  <!-- 外部システム層 -->
  <g transform="translate(900, 900)">
    <rect x="-400" y="-40" width="800" height="120" class="cluster" fill="#fffde7" />
    <text x="0" y="-20" text-anchor="middle" class="cluster">外部システム・データソース</text>
    
    <g transform="translate(-300, 40)">
      <rect x="-60" y="-25" width="120" height="50" class="node" />
      <text x="0" y="5" text-anchor="middle">各種 API</text>
    </g>
    
    <g transform="translate(-100, 40)">
      <rect x="-60" y="-25" width="120" height="50" class="node" />
      <text x="0" y="5" text-anchor="middle">技術ニュース</text>
    </g>
    
    <g transform="translate(100, 40)">
      <rect x="-60" y="-25" width="120" height="50" class="node" />
      <text x="0" y="5" text-anchor="middle">論文データベース</text>
    </g>
    
    <g transform="translate(300, 40)">
      <rect x="-60" y="-25" width="120" height="50" class="node" />
      <text x="0" y="5" text-anchor="middle">市場データ</text>
    </g>
  </g>
  
  <!-- ユーザー -->
  <g transform="translate(900, 30)">
    <circle cx="0" cy="0" r="25" class="node" fill="#ff9999" />
    <text x="0" y="5" text-anchor="middle">ユーザー</text>
  </g>
  
  <!-- 接続線（ユーザー→インターフェース） -->
  <path d="M 900,55 L 900,60" stroke="#333" stroke-width="2" fill="none" marker-end="url(#arrowhead)" />
  
  <!-- インターフェース→コア -->
  <path d="M 900,220 L 900,260" stroke="#333" stroke-width="2" fill="none" marker-end="url(#arrowhead)" />
  
  <!-- コア→エージェント -->
  <path d="M 1000,360 L 1350,660" stroke="#333" stroke-width="2" fill="none" marker-end="url(#arrowhead)" />
  
  <!-- コア→サーバー -->
  <path d="M 800,360 L 450,660" stroke="#333" stroke-width="2" fill="none" marker-end="url(#arrowhead)" />
  
  <!-- コア→データストア -->
  <path d="M 900,360 L 900,460" stroke="#333" stroke-width="2" fill="none" marker-end="url(#arrowhead)" />
  
  <!-- エージェント→外部 -->
  <path d="M 1350,860 L 1100,900" stroke="#333" stroke-width="2" fill="none" marker-end="url(#arrowhead)" />
  
  <!-- サーバー→外部 -->
  <path d="M 450,860 L 700,900" stroke="#333" stroke-width="2" fill="none" marker-end="url(#arrowhead)" />
  
  <!-- 進化フィードバック -->
  <path d="M 1200,360 L 1000,360" stroke="#333" stroke-width="2" stroke-dasharray="5,5" fill="none" marker-end="url(#arrowhead)" />
  <path d="M 1200,360 L 800,360" stroke="#333" stroke-width="2" stroke-dasharray="5,5" fill="none" marker-end="url(#arrowhead)" />
  <path d="M 900,55 L 1200,300" stroke="#333" stroke-width="2" stroke-dasharray="5,5" fill="none" marker-end="url(#arrowhead)" />
  
  <!-- 可視化フロー -->
  <path d="M 900,460 L 700,100" stroke="#333" stroke-width="2" stroke-dasharray="5,5" fill="none" marker-end="url(#arrowhead)" />
  <path d="M 1000,560 L 700,100" stroke="#333" stroke-width="2" stroke-dasharray="5,5" fill="none" marker-end="url(#arrowhead)" />
</svg>